<svg width="74" height="60" viewBox="0 0 74 60" fill="none" xmlns="http://www.w3.org/2000/svg">
<g clip-path="url(#clip0_31_278)">
<path d="M73.9615 29.5594C74.0311 29.3167 74.005 29.0567 73.888 28.8334L64.168 10.2617C64.0715 10.0772 63.9186 9.92837 63.7321 9.83692L43.8932 0.099587C43.7106 0.0101192 43.5048 -0.0203631 43.3044 0.0124945L23.8046 3.22423L23.6434 3.25075L10.8442 10.0511C10.7166 10.1188 10.6059 10.2138 10.5194 10.3298L0.194694 24.1541C0.0129218 24.3972 -0.0455615 24.7111 0.0354458 25.0041L4.2498 40.1685C4.36163 40.5711 4.71609 40.8581 5.13219 40.8838L18.3198 41.6942C18.6316 41.7132 18.9157 41.8806 19.084 42.1443L22.7949 47.9593C22.9084 48.137 23.0763 48.2732 23.2731 48.348L34.234 52.4992C34.4312 52.574 34.6473 52.5827 34.85 52.5241L43.2341 50.1085C43.6387 49.9917 44.0726 50.1477 44.3109 50.4957L50.5303 59.5747C50.9152 60.1364 51.7402 60.1431 52.1338 59.5877L55.4599 54.8978C55.5559 54.7628 55.6843 54.6539 55.8333 54.5823L62.3226 51.4568C62.5051 51.369 62.6561 51.2261 62.7545 51.0487L66.514 44.2511C66.6258 44.0492 66.8048 43.8933 67.0202 43.8109L69.7606 42.7611C70.0475 42.651 70.266 42.4127 70.351 42.117L73.9588 29.5665C73.9596 29.5642 73.96 29.5622 73.9608 29.5598L73.9615 29.5594ZM43.8375 47.8536L39.8507 49.0024C38.9553 49.2605 38.2409 48.2368 38.7905 47.4831L49.9668 32.1528C50.4781 31.4513 51.5802 31.7142 51.7217 32.5708L53.2632 41.9186C53.3308 42.328 53.1336 42.7353 52.7712 42.936L44.0402 47.7697C43.9762 47.8053 43.9078 47.8334 43.8375 47.8536ZM26.7983 8.33339L48.5308 26.3849C49.1077 26.8643 48.9544 27.7891 48.2534 28.0555L23.2197 37.5632C22.5326 37.8241 21.8146 37.2612 21.9019 36.5304L25.203 8.97115C25.2955 8.20077 26.202 7.83855 26.7983 8.33379V8.33339ZM54.6534 25.4807L62.2688 14.0593C62.681 13.441 63.6037 13.4901 63.9483 14.1484L70.4664 26.6022C70.8224 27.2827 70.2941 28.0903 69.5291 28.0345L55.3955 27.0021C54.6478 26.9474 54.2369 26.105 54.6534 25.4807ZM61.2023 12.0582L52.2555 25.4764C51.9335 25.9597 51.2645 26.0571 50.818 25.6866L27.4685 6.29226C26.8228 5.75585 27.1065 4.70757 27.934 4.571L42.999 2.09005C43.1997 2.05719 43.4052 2.08728 43.5878 2.17714L60.819 10.6342C61.3505 10.8951 61.5307 11.5653 61.2019 12.0582H61.2023ZM5.79171 38.2596L3.67327 30.6362C3.41246 29.6972 4.53116 28.9941 5.26141 29.6378L14.4006 37.6927C15.1 38.309 14.6247 39.4634 13.6949 39.4064L6.6741 38.9749C6.25799 38.9492 5.90354 38.6622 5.79171 38.2596ZM2.98056 23.7622L11.8499 11.8864C11.9364 11.7708 12.0475 11.6754 12.1747 11.6077L21.9517 6.4134C22.6491 6.04286 23.475 6.61054 23.381 7.39596L19.751 37.7006C19.6574 38.4836 18.7252 38.8407 18.1341 38.3193L3.11768 25.0848C2.73477 24.7472 2.6751 24.1716 2.98056 23.7622ZM21.6695 40.2904L46.101 31.0115C47.0106 30.6659 47.8112 31.7185 47.2374 32.5055L34.6623 49.7546C34.4027 50.1105 33.938 50.249 33.5266 50.0931L24.5988 46.7119C24.4017 46.6375 24.2341 46.5009 24.1207 46.3231L21.1922 41.7346C20.8579 41.2104 21.0891 40.5109 21.6695 40.2904ZM46.7162 48.5729L52.1666 45.5555C52.802 45.2036 53.5852 45.6438 53.6169 46.3706L53.916 53.2672C53.9255 53.4849 53.8622 53.6995 53.7362 53.8772L52.1635 56.0949C51.7695 56.6503 50.9444 56.6436 50.5599 56.0819L46.3835 49.985C46.0567 49.508 46.2116 48.8528 46.717 48.5729H46.7162ZM60.8854 49.93L57.21 51.7003C56.5774 52.0051 55.8396 51.5625 55.8092 50.8599L55.5618 45.1569C55.5377 44.5995 55.9823 44.1343 56.539 44.1343H62.6367C63.382 44.1343 63.8534 44.936 63.4922 45.5892L61.3173 49.5218C61.2189 49.6996 61.0683 49.8421 60.8858 49.93H60.8854ZM68.1187 41.2492L65.9754 42.0703C65.864 42.113 65.7454 42.1348 65.6261 42.1348H56.1518C55.6733 42.1348 55.2647 41.7876 55.1868 41.3145L53.3323 30.0693C53.2292 29.4438 53.7374 28.8864 54.3684 28.9324L70.4988 30.1105C71.1184 30.1556 71.5396 30.7609 71.3673 31.3587L68.7091 40.6051C68.6242 40.9008 68.4056 41.1392 68.1187 41.2492Z" fill="#243DCE"/>
</g>
<defs>
<clipPath id="clip0_31_278">
<rect width="74" height="60" fill="white"/>
</clipPath>
</defs>
</svg>
