<svg width="56" height="60" viewBox="0 0 56 60" fill="none" xmlns="http://www.w3.org/2000/svg">
<path d="M5.4264 0.0368652V5.05371H10.4384V5.46685H5.4264V10.4837H5.012V5.46685H0V5.05371H5.012V0.0368652H5.4264Z" fill="#243DCE"/>
<path d="M28.1847 0.0368652V5.05371H33.1967V5.46685H28.1847V10.4837H27.7703V5.46685H22.7583V5.05371H27.7703V0.0368652H28.1847Z" fill="#243DCE"/>
<path d="M50.9432 0.0368652V5.05371H55.9552V5.46685H50.9432V10.4837H50.5288V5.46685H45.5168V5.05371H50.5288V0.0368652H50.9432Z" fill="#243DCE"/>
<path d="M28.1847 24.776V29.7928H33.1967V30.206H28.1847V35.2228H27.7703V30.206H22.7583V29.7928H27.7703V24.776H28.1847Z" fill="#243DCE"/>
<path d="M5.4264 24.776V29.7928H10.4384V30.206H5.4264V35.2228H5.012V30.206H0V29.7928H5.012V24.776H5.4264Z" fill="#243DCE"/>
<path d="M50.9432 24.776V29.7928H55.9552V30.206H50.9432V35.2228H50.5288V30.206H45.5168V29.7928H50.5288V24.776H50.9432Z" fill="#243DCE"/>
<path d="M5.4264 49.5153V54.5321H10.4384V54.9452H5.4264V59.9621H5.012V54.9452H0V54.5321H5.012V49.5153H5.4264Z" fill="#243DCE"/>
<path d="M28.1847 49.5153V54.5321H33.1967V54.9452H28.1847V59.9621H27.7703V54.9452H22.7583V54.5321H27.7703V49.5153H28.1847Z" fill="#243DCE"/>
<path d="M50.9432 49.5153V54.5321H55.9552V54.9452H50.9432V59.9621H50.5288V54.9452H45.5168V54.5321H50.5288V49.5153H50.9432Z" fill="#243DCE"/>
</svg>
