<svg width="587" height="480" viewBox="0 0 587 480" fill="none" xmlns="http://www.w3.org/2000/svg">
<g clip-path="url(#clip0_29_104)">
<path d="M585.953 237.36C586.503 235.435 586.296 233.374 585.371 231.601L508.493 84.3255C507.73 82.8614 506.52 81.6824 505.045 80.9548L348.134 3.74281C346.691 3.03303 345.062 2.79248 343.478 3.05382L189.251 28.5199L187.974 28.7278L86.7455 82.6565C85.7373 83.1941 84.8591 83.9484 84.1762 84.8661L2.51727 194.496C1.08035 196.424 0.616163 198.916 1.25775 201.235L34.5877 321.488C35.4718 324.681 38.2746 326.956 41.5654 327.161L145.869 333.587C148.335 333.739 150.582 335.066 151.912 337.157L181.266 383.269C182.162 384.68 183.489 385.761 185.047 386.352L271.738 419.269C273.299 419.863 275.008 419.932 276.611 419.468L342.922 400.313C346.124 399.389 349.554 400.625 351.437 403.384L400.629 475.381C403.671 479.836 410.2 479.889 413.313 475.485L439.621 438.294C440.378 437.222 441.395 436.361 442.575 435.79L493.899 411.004C495.344 410.306 496.536 409.175 497.314 407.767L527.048 353.862C527.932 352.262 529.349 351.023 531.052 350.37L552.727 342.045C554.994 341.175 556.724 339.283 557.398 336.937L585.932 237.41C585.938 237.392 585.944 237.375 585.947 237.357L585.953 237.36ZM347.694 382.432L316.161 391.543C309.077 393.589 303.43 385.473 307.776 379.495L396.171 257.923C400.215 252.36 408.931 254.442 410.049 261.24L422.242 335.366C422.777 338.612 421.216 341.843 418.351 343.432L349.296 381.764C348.788 382.046 348.25 382.268 347.694 382.429V382.432ZM212.928 69.037L384.814 212.185C389.379 215.986 388.164 223.321 382.62 225.433L184.624 300.83C179.19 302.9 173.51 298.437 174.202 292.64L200.312 74.0946C201.042 67.9857 208.215 65.1109 212.931 69.04L212.928 69.037ZM433.238 205.016L493.47 114.442C496.731 109.539 504.028 109.928 506.754 115.149L558.306 213.907C561.123 219.303 556.943 225.709 550.893 225.264L439.11 217.079C433.196 216.645 429.947 209.966 433.241 205.013L433.238 205.016ZM485.035 98.5747L414.274 204.98C411.725 208.811 406.436 209.586 402.903 206.646L218.229 52.8486C213.123 48.5958 215.364 40.2803 221.913 39.1993L341.065 19.5244C342.653 19.263 344.279 19.5036 345.722 20.2134L482.007 87.2805C486.211 89.3505 487.637 94.6634 485.038 98.5747H485.035ZM46.7838 306.351L30.0286 245.898C27.9649 238.453 36.8141 232.875 42.5913 237.98L114.875 301.855C120.407 306.743 116.646 315.896 109.293 315.445L53.7644 312.024C50.4736 311.822 47.6708 309.544 46.7867 306.351H46.7838ZM24.55 191.387L94.6988 97.2115C95.3818 96.2939 96.2599 95.5395 97.2681 95.002L174.596 53.8108C180.113 50.8707 186.644 55.3729 185.899 61.6006L157.187 301.92C156.445 308.13 149.074 310.96 144.397 306.829L25.6351 201.876C22.6045 199.201 22.1344 194.633 24.55 191.387ZM172.363 322.457L365.596 248.874C372.793 246.133 379.123 254.481 374.584 260.723L275.127 397.51C273.075 400.331 269.4 401.43 266.144 400.194L195.531 373.38C193.973 372.789 192.646 371.708 191.75 370.297L168.588 333.908C165.941 329.753 167.772 324.206 172.363 322.457ZM370.463 388.137L413.57 364.206C418.596 361.414 424.791 364.907 425.039 370.668L427.404 425.36C427.478 427.086 426.979 428.79 425.982 430.198L413.541 447.785C410.427 452.19 403.899 452.136 400.857 447.681L367.822 399.333C365.238 395.549 366.462 390.355 370.46 388.137H370.463ZM482.53 398.899L453.464 412.938C448.458 415.355 442.625 411.845 442.383 406.273L440.425 361.049C440.233 356.63 443.748 352.942 448.154 352.942H496.382C502.278 352.942 506.006 359.3 503.15 364.476L485.945 395.662C485.168 397.07 483.976 398.201 482.53 398.899ZM539.738 330.059L522.788 336.569C521.907 336.908 520.969 337.083 520.026 337.083H445.091C441.306 337.083 438.075 334.33 437.46 330.579L422.792 241.402C421.976 236.442 425.994 232.02 430.988 232.385L558.566 241.728C563.468 242.088 566.797 246.884 565.437 251.627L544.415 324.951C543.744 327.294 542.015 329.186 539.744 330.059H539.738Z" fill="url(#paint0_radial_29_104)"/>
</g>
<defs>
<radialGradient id="paint0_radial_29_104" cx="0" cy="0" r="1" gradientUnits="userSpaceOnUse" gradientTransform="translate(408.163 493.615) scale(378.362 380.049)">
<stop stop-color="#243DCE"/>
<stop offset="1" stop-color="#25CC74"/>
</radialGradient>
<clipPath id="clip0_29_104">
<rect width="585.424" height="479.919" fill="white" transform="translate(0.831055)"/>
</clipPath>
</defs>
</svg>
